<?xml version="1.0" encoding="UTF-8" standalone="no"?>
<svg width="377px" height="126px" viewBox="0 0 377 126" version="1.1" xmlns="http://www.w3.org/2000/svg" xmlns:xlink="http://www.w3.org/1999/xlink" xmlns:sketch="http://www.bohemiancoding.com/sketch/ns">
    <!-- Generator: Sketch 3.4 (15588) - http://www.bohemiancoding.com/sketch -->
    <title>ribbon</title>
    <desc>Created with Sketch.</desc>
    <defs></defs>
    <g id="Page-1" stroke="none" stroke-width="1" fill="none" fill-rule="evenodd" sketch:type="MSPage">
        <g id="ribbon" sketch:type="MSLayerGroup" transform="translate(-1.000000, 0.000000)" fill="#337ab7">
            <g id="Page-1" sketch:type="MSShapeGroup">
                <g id="ribbon">
                    <path d="M61.2865294,100.711404 C50.8082941,104.791 41.3667353,110.140596 32.0700882,116.851544 C29.6221941,119.848298 26.8354294,122.584368 23.8636235,125.202351 C23.3040412,116.630965 23.1925706,108.436123 24.4165176,99.9048421 C18.1674765,94.3346667 8.52527059,97.3715263 0.996547059,96.9860702 C5.16777647,85.8122982 12.4490353,76.1335614 22.3253294,69.3735965 C27.6580824,77.5350175 30.4760588,86.8884561 35.3673882,95.2882807 C37.5700471,97.0529123 40.2052118,98.2961754 42.7891,99.5884561 C52.5561529,98.0733684 61.3601,95.3974561 71.3233412,95.0721579 C69.8474706,99.0893684 64.7956235,99.3455965 61.2865294,100.711404" id="Fill-1"></path>
                    <path d="M70.4561,91.6676667 C61.4448176,92.9421228 52.7367353,94.7780526 43.8614471,96.7610351 C43.8101706,92.790614 48.6457647,89.4730175 52.2306588,87.1625088 C55.7308353,84.3841053 60.0960235,82.3030877 64.5392412,80.2421228 C67.3683647,82.8110877 69.9923824,88.4035439 70.4561,91.6676667" id="Fill-2"></path>
                    <path d="M39.1997471,94.8359825 C31.3767412,81.231386 24.8601706,67.4507719 20.0022824,52.5160175 C27.1720706,38.1984386 43.6786353,31.0485614 58.0605706,26.3005439 C60.4103706,37.5790351 61.9977118,48.9577895 64.5347824,60.1984035 C69.4528647,66.4169474 77.4542235,68.2283684 82.1761176,74.6340702 C64.0220176,75.8439123 53.0822941,84.0342982 39.1997471,94.8359825" id="Fill-3"></path>
                    <path d="M85.4176824,72.5619649 C81.4136588,69.0215614 76.0229412,67.0809123 72.5472882,62.6938421 C76.8233,62.4710351 79.3782059,62.4019649 83.5516647,61.4706316 C83.7233294,65.8131404 85.2348706,68.4266667 85.4176824,72.5619649" id="Fill-4"></path>
                    <path d="M197.416641,55.7177544 C193.470582,55.7400351 189.482165,55.8581228 185.551712,55.9784386 C176.395518,56.2636316 167.107788,56.3304737 157.940447,56.531 C141.155206,56.9008596 124.220594,57.5358596 107.413059,58.2688947 C94.5025353,58.8303684 81.5875529,59.5745439 68.6859471,60.6395614 C63.9038588,44.4258947 61.2129588,27.9359474 59.7326294,11.1184737 C73.2094235,7.52236842 86.7330353,5.52824561 100.5108,4.17135088 C118.582412,2.39557895 137.039712,1.4352807 155.1626,1.23475439 C164.648747,1.13226316 174.342229,1.3305614 183.857359,1.26817544 C188.759835,1.23475439 193.747029,1.31719298 198.645047,1.35061404 C198.647276,1.22138596 198.647276,1.15677193 198.653965,1.02531579 C237.418976,0.212070175 279.757735,-1.34757895 317.472694,9.22907018 C316.230912,26.0665965 313.776329,42.5899649 309.235018,58.8727018 C302.497735,58.3624737 295.740388,58.0059825 289.003106,57.7341579 C272.331565,57.0635088 255.590912,56.7493509 238.897076,56.3349298 C225.079182,55.9962632 211.196635,55.6353158 197.416641,55.7177544" id="Fill-5"></path>
                    <path d="M292.679406,71.040193 C292.802024,66.9026667 294.277894,64.2646316 294.382676,59.9221228 C298.571741,60.7910702 301.122188,60.8222632 305.404888,60.9826842 C301.993888,65.4232281 296.632153,67.4418596 292.679406,71.040193" id="Fill-6"></path>
                    <path d="M295.952182,73.0632807 C300.578212,66.5885088 308.550588,64.6612281 313.377265,58.371386 C315.753818,47.0928947 317.169494,35.6918596 319.354318,24.3821754 C333.805365,28.9162982 350.418941,35.8255439 357.793835,50.0339474 C353.1522,65.04 346.840735,78.9119649 339.220606,92.6324211 C325.179771,82.0379474 314.124118,74.0079825 295.952182,73.0632807" id="Fill-7"></path>
                    <path d="M313.669318,78.4128772 C318.143747,80.407 322.537918,82.4234035 326.078224,85.1527895 C329.696559,87.4120526 334.5812,90.6561228 334.590118,94.6265439 C325.685847,92.7750175 316.951012,91.0638596 307.921894,89.9253158 C308.338794,86.6522807 310.878094,81.0241754 313.669318,78.4128772" id="Fill-8"></path>
                    <path d="M354.075176,97.4851579 C355.428429,105.996386 355.435118,114.191228 355.000382,122.769298 C351.992906,120.198105 349.163782,117.50214 346.675759,114.538807 C337.281018,107.966 327.7592,102.759 317.223,98.8331404 C313.693841,97.5163509 308.639765,97.3358772 307.1037,93.3409474 C317.0714,93.519193 325.913247,96.0636491 335.700365,97.4339123 C338.264188,96.1082105 340.881518,94.8248421 343.057424,93.0267895 C347.828365,84.5601228 350.508118,75.1665789 355.722712,66.9249474 C365.692641,73.5378596 373.116582,83.1096491 377.452788,94.2210351 C369.930753,94.7178947 360.241729,91.8214035 354.075176,97.4851579" id="Fill-9"></path>
                </g>
            </g>
        </g>
    </g>
</svg>
