<?xml version="1.0" encoding="UTF-8" standalone="no"?>
<svg width="75px" height="86px" viewBox="0 0 75 86" version="1.1" xmlns="http://www.w3.org/2000/svg" xmlns:xlink="http://www.w3.org/1999/xlink" xmlns:sketch="http://www.bohemiancoding.com/sketch/ns">
    <!-- Generator: Sketch 3.4 (15588) - http://www.bohemiancoding.com/sketch -->
    <title>rose-right</title>
    <desc>Created with Sketch.</desc>
    <defs></defs>
    <g id="Page-1" stroke="none" stroke-width="1" fill="none" fill-rule="evenodd" sketch:type="MSPage">
        <path d="M36.3602564,1.03518519 C36.9820513,2.36977778 36.9807692,4.40638519 36.7929487,5.83971852 C38.9576923,4.71471111 39.4705128,2.58891852 41.6551282,1.47665185 C42.4551282,2.20542222 41.1397436,3.05777778 41.2884615,4.0197037 C43.4910256,3.11447407 43.9634615,1.16195556 45.7410256,0 C46.3160256,1.88626667 45.6698718,4.68031111 45.4025641,6.70863704 C46.0980769,6.72838519 47.0455128,5.20714074 47.5730769,4.46754074 C51.5467949,11.351363 45.0269231,18.0491704 36.8237179,18.1052296 C35.3467949,21.1610963 34.1705128,24.3997926 34.1333333,28.3271259 C35.6391026,27.6117333 35.9570513,25.2559704 37.9487179,23.7251704 C38.6179487,23.2110815 39.6089744,23.1206222 40.4012821,22.6422074 C41.8692308,21.757363 43.7814103,19.8354222 46.7064103,20.140563 C48.4076923,20.3176593 49.6153846,22.0089926 51.6410256,22.1414963 C51.3429487,23.0575556 50.274359,22.8173926 49.3083333,22.704 C47.1724359,25.5031407 41.9608974,24.8011259 39.8717949,23.5060296 C36.4147436,25.7585926 35.2057692,29.3718667 33.1724359,32.4857037 C33.7653846,35.7619852 32.5474359,38.7025481 33.9801282,41.864163 C35.4307692,39.5810222 36.9788462,35.6479556 40.15,33.7489481 C41.3724359,39.559363 38.9019231,43.1331407 35.2326923,45.9806963 C36.6012821,50.121437 38.3673077,53.6162222 40.6910256,56.2000444 C40.0147436,52.7313778 41.3538462,50.276237 42.3230769,47.7070667 C43.3576923,44.960163 43.8641026,41.3978519 46.5064103,40.5614222 C49.3474359,42.3056296 47.175641,47.1464741 44.8185897,48.8231556 C44.1602564,49.2907407 43.1570513,49.2856444 42.599359,49.8494222 C41.1173077,51.3451852 41.4044872,56.279037 42.2467949,58.5245926 C43.1,60.7988148 47.1621795,64.5439556 49.1198718,66.4410519 C51.649359,68.8917333 54.3794872,71.2640593 56.8192308,72.6846519 C55.0416667,67.8762963 55.9724359,61.2179852 52.0871795,58.3615111 C49.1320513,59.0412296 45.8762821,54.3711111 46.4371795,50.396637 C49.9833333,50.8801481 50.7628205,55.8757926 53.2532051,58.0805778 C53.3660256,53.9283704 53.8474359,48.9658519 57.0544872,47.3458667 C59.1974359,51.6554222 57.5217949,56.7638222 54.5262821,59.2463556 C54.6891026,60.6000593 55.4102564,61.0459852 55.7282051,62.1474222 C57.3403846,59.2635556 58.6878205,56.9791407 60.6608974,56.0484296 C66.1846154,53.4429481 72.9737179,56.7300593 73.6544872,62.7334963 C73.9775641,65.5791407 72.5160256,69.8294519 70.3974359,70.6378519 C65.8794872,72.3591259 59.9775641,65.7364889 66.4173077,65.4606519 C66.4320513,66.5232296 64.625,66.4818222 64.7141026,67.5896296 C65.5980769,69.3287407 68.2602564,70.2053037 70.1147436,69.4771704 C71.6673077,68.869437 73.0346154,65.2052 72.7794872,63.1896148 C71.9532051,56.6797333 63.3019231,54.3844889 58.950641,59.1609926 C57.8980769,60.3178519 56.9935897,61.9690519 56.7673077,63.3698963 C56.5615385,64.6471556 57.224359,65.892563 57.2634615,67.4227259 C57.2858974,68.334963 56.8807692,69.7676593 57.5262821,71.5316148 C60.1820513,78.792563 70.300641,79.8462222 74.7205128,85.3037185 C71.9782051,85.3750667 70.3852564,83.3569333 68.2794872,82.1930667 C65.2320513,80.5106519 62.3365385,78.9186963 59.1173077,77.039437 C56.9628205,75.7806519 54.8429487,73.788 51.2141026,75.0174815 C48.5147436,75.9322667 45.9384615,79.206 42.7532051,77.7936889 C41.1160256,77.0674667 38.9467949,74.7410074 41.4442308,73.4459111 C44.4814103,71.8698815 47.8583333,73.3828444 49.9980769,74.0829481 C51.6974359,73.0541333 53.3583333,73.9829333 55.1224359,73.8287704 C54.8782051,72.6782815 53.4653846,71.8921778 52.4634615,71.0340889 C49.9948718,68.9178519 46.5198718,65.446 42.1923077,66.3932741 C40.1384615,66.8423852 38.1801282,68.9121185 35.824359,69.6466222 C32.7615385,70.6021778 30.0948718,70.4919704 27.9769231,67.8565481 C31.6448718,65.7785333 36.5878205,63.5234222 40.0435897,65.6836148 C42.2942308,64.2955111 44.4237179,65.584237 46.4474359,65.6116296 C44.2115385,62.8844741 41.9051282,60.2726222 39.7519231,57.4085037 C36.3038462,59.7591704 30.6128205,59.1788296 28.5826923,56.174563 C31.7737179,56.2771259 34.7782051,54.2882963 37.5596154,54.5004296 C35.125,49.6175407 33.4884615,46.2444296 30.5942308,43.171363 C26.6730769,39.0070519 21.0814103,36.8462222 15.9532051,38.8471556 C10.4641026,40.9901481 5.88589744,49.6449333 11.6455128,55.5954963 C12.8935897,56.8854963 16.5846154,59.0577926 20.425641,57.1594222 C24.2339744,55.2776148 23.9730769,47.4108444 18.3173077,50.550163 C17.7237179,51.6433185 19.6064103,51.9905037 18.5942308,52.6925185 C17.4666667,53.2811407 16.9467949,51.9758519 16.8551282,51.6388593 C16.2038462,49.2633481 20.9455128,47.7988 22.5801282,48.7855704 C26.9653846,51.4343704 22.8692308,58.0595556 19.1326923,58.9444 C14.7044872,59.9936 10.2852564,57.2887407 8.69038462,53.6079407 C5.98782051,47.3675259 8.99102564,41.0474815 15.2038462,37.8005037 C12.1647436,35.6141926 9.56025641,39.6784889 7.26794872,40.6964741 C4.49615385,41.9265926 1.47115385,41.5743111 0,39.2580444 C1.60705128,38.4592 2.52948718,37.5176593 3.91538462,37.0863852 C6.18846154,36.378637 7.93012821,37.4138222 10.1435897,37.3023407 C12.1333333,37.202963 13.9782051,35.8696444 15.9108974,36.6481037 C14.5961538,32.7239556 8.08846154,32.7405185 9.63910256,26.1331704 C12.6032051,27.0250222 16.7769231,30.2560741 15.1685897,34.6185037 C17.5346154,37.6431556 22.9833333,36.686963 26.4935897,38.5146222 C28.9711538,39.8046222 30.4794872,41.9253185 32.800641,44.1122667 C33.3685897,42.9808889 32.4961538,42.1546519 32.2974359,41.0417481 C31.8673077,38.6343852 32.6153846,36.7990815 31.5326923,33.8636148 C30.6205128,31.39 27.5903846,27.9366222 25.7,27.1696296 C24.6160256,26.7307111 23.5365385,27.2537185 22.6173077,26.6861185 C20.5487179,25.4063111 20.3653846,21.6012889 19.9929487,18.9728741 C22.9012821,19.6035407 25.6025641,21.2152444 26.7096154,24.2258815 C26.9685897,24.9310815 26.7788462,26.1331704 27.099359,26.832637 C28.2032051,29.239363 31.2826923,30.4471852 32.1826923,32.4799704 C33.024359,27.3919556 33.8192308,22.2771852 35.7775641,17.8657037 C30.9339744,13.158637 31.4455128,3.93816296 36.3602564,1.03518519 L36.3602564,1.03518519 Z M40.2416667,3.78145185 C40.5467949,3.55657778 40.15,3.50625185 40.2416667,3.78145185 C38.3012821,4.90900741 38.3884615,7.26668148 35.8467949,8.03176296 C35.475641,6.16142222 36.2692308,4.99628148 35.8801282,3.11447407 C34.3865385,4.56437037 32.9160256,7.33739259 33.1532051,10.1537333 C33.4378205,13.5211111 35.3423077,17.5892296 38.3429487,17.2471407 C41.5262821,16.8859407 46.5794872,13.3567556 47.4685897,11.1201185 C47.9339744,9.94733333 47.7288462,8.32225185 47.3820513,6.72265185 C45.9512821,7.24183704 45.0884615,9.14785185 43.4666667,8.89431111 C44.0865385,7.01505185 45.6301282,4.69687407 44.6173077,2.47998519 C42.6346154,3.71583704 41.9980769,5.76645926 40.3346154,7.1946963 C39.724359,5.7053037 40.474359,5.04151111 40.2416667,3.78145185 L40.2416667,3.78145185 Z M25.9967949,26.3618667 C25.3814103,22.7192889 23.3891026,21.3216296 21.0891026,20.4272296 C21.0089744,23.9309333 22.7288462,27.2409778 25.9967949,26.3618667 L25.9967949,26.3618667 Z M14.5384615,33.0513926 C14.8262821,29.7419852 11.9147436,28.9284889 10.2679487,27.7002815 C10.2564103,30.5612148 12.550641,32.3805926 14.5384615,33.0513926 L14.5384615,33.0513926 Z M41.9147436,22.7689778 C42.7865385,24.2985037 46.9269231,23.8392 48.2621795,22.4644741 C48.0455128,20.8674222 43.4544872,21.2655704 41.9147436,22.7689778 L41.9147436,22.7689778 Z M2.09230769,39.7351852 C3.88012821,40.0244 7.52884615,40.2123259 8.1,38.0413037 C6.55641026,37.2265333 2.62820513,37.8992444 2.09230769,39.7351852 L2.09230769,39.7351852 Z M34.949359,44.8206519 C38.0782051,42.8324593 39.7352564,39.9498667 39.4358974,35.8849333 C36.349359,37.8998815 35.0083333,40.9723111 34.949359,44.8206519 L34.949359,44.8206519 Z M43.2487179,48.4651407 C45.5455128,47.0248 47.3525641,45.288237 46.6128205,42.0087704 C44.6064103,42.8509333 43.1839744,45.7150519 43.2487179,48.4651407 L43.2487179,48.4651407 Z M54.3064103,57.3358815 C57.125,56.4625037 57.4801282,52.4185926 56.9262821,48.848637 C54.3365385,49.880637 54.4282051,54.1596148 54.3064103,57.3358815 L54.3064103,57.3358815 Z M50.7570513,56.9638519 C50.1205128,54.6539556 49.0929487,52.9810963 47.4134615,52.3701778 C48.1557692,54.507437 48.5980769,57.1358519 50.7570513,56.9638519 L50.7570513,56.9638519 Z M31.0211538,57.0594074 C33.3205128,57.6843407 37.1602564,58.5589926 39.2916667,56.5383111 C37.6955128,54.5055259 33.0153846,55.9216593 31.0211538,57.0594074 L31.0211538,57.0594074 Z M30.3025641,68.2782667 C32.375641,69.814163 37.0769231,68.3496148 39.0467949,66.6608296 C36.8833333,64.6471556 32.15,66.2435704 30.3025641,68.2782667 L30.3025641,68.2782667 Z M41.8403846,75.0690815 C42.7666667,77.7624741 47.7288462,76.7292 48.8884615,74.597037 C47.0211538,74.4014667 43.2519231,72.8496444 41.8403846,75.0690815 L41.8403846,75.0690815 Z" id="rose-right" fill="#F4AF9C" sketch:type="MSShapeGroup" transform="translate(37.500000, 43.000000) scale(-1, 1) translate(-37.500000, -43.000000) "></path>
    </g>
</svg>